# xmcd CD database file
#
# Track frame offsets:
#	150
#	26524
#	48548
#	63881
#	82538
#	109316
#	131526
#	145014
#
# Disc length: 2261 seconds
#
# Revision: 0
# Processed by: cddbd v1.5.2PL0 Copyright (c) Steve Scherf et al.
# Submitted via: NeoAudio 9.9.9
#
DISCID=5f08d308
DTITLE=Luis Mangual Y Su Conjuncto Mangual - Abril En Paris
DYEAR=2007
DGENRE=Salsa
TTITLE0=Abril En Paris
TTITLE1=Apoya La
TTITLE2=Porque Ahora
TTITLE3=Bomba Mangual
TTITLE4=Son De Nueva York
TTITLE5=Se Baila De Lao
TTITLE6=Por Eso No Debes
TTITLE7=Rumbero
EXTD=YEAR: 2007
EXTT0=
EXTT1=
EXTT2=
EXTT3=
EXTT4=
EXTT5=
EXTT6=
EXTT7=
PLAYORDER=
